<svg width="1161" height="371" viewBox="0 0 1161 371" fill="none" xmlns="http://www.w3.org/2000/svg">
<path d="M1021.35 237.63C1021.43 237.867 1019.42 240.448 1018.86 241.652C1017.12 242.507 1013.97 245.64 1012.62 247.127V247.128L1012.63 247.233H1012.63L1012.98 247.851C1013.86 246.9 1023.9 240.759 1025.7 239.699C1028.9 237.809 1032.59 238.308 1036.24 239.61C1042.98 242.013 1050.77 247.009 1057.07 250.687C1058.19 251.309 1058.58 252.396 1059.28 253.28C1062.17 256.926 1060.1 271.594 1056.72 273.608C1053.37 275.606 1046.37 279.061 1042.28 281.084C1043.53 281.468 1044.83 281.756 1046.12 281.99C1051.84 283.035 1057.18 284.499 1062.72 286.287C1064.65 285.669 1067.3 285.825 1069.35 285.95C1069.71 285.972 1069.88 286.429 1070.13 286.832C1070.92 287.061 1073.58 284.268 1074.3 283.536C1077.48 280.308 1081.57 278.421 1085.49 276.265C1087.29 275.276 1086.79 277.051 1088.05 277.525L1088.53 277.158C1088.44 276.482 1088.32 276.16 1088.11 275.523C1088.27 275.113 1088.44 274.657 1088.9 274.522C1094.48 272.881 1098.96 269.262 1104.02 266.49C1107.14 265.037 1111.39 262.311 1114.6 261.314C1120.86 259.373 1125.5 257.227 1131.03 253.725C1132.07 253.068 1135.22 253.127 1136.01 252.387C1135.8 251.896 1135.64 251.691 1135.74 251.196L1136.2 251.077C1137.3 251.292 1139.04 252.495 1140.07 253.125L1141.47 255.806C1141.44 256.34 1141.37 258.441 1141.23 258.818C1139.65 263.056 1137.64 267.6 1135.83 271.741C1131.82 280.939 1129.2 289.326 1123.55 297.713C1124.41 301.454 1125.19 306.18 1128.08 308.934C1129.51 310.296 1130.63 311.198 1131.81 312.918C1132.95 314.58 1132.65 316.607 1133.23 317.805C1134.55 320.559 1136.47 322.362 1138.35 325.054C1140.56 328.199 1142.02 334.083 1142.46 337.902C1142.51 338.366 1142.3 341.754 1142.38 342.579C1142.44 343.153 1142.06 343.509 1141.69 343.783C1140.17 343.396 1139.67 342.122 1138.95 340.846C1137.58 340.767 1132.68 340.578 1131.7 340.35C1125.97 339.015 1118.07 337.902 1112.76 335.895C1108.25 334.19 1103.65 331.663 1099.03 329.884C1096.37 328.86 1092.56 328.304 1090.5 327.413C1083.74 324.492 1076.91 321.279 1070.04 318.648C1069.72 318.152 1069.68 318.032 1069.22 317.674C1068.77 318.052 1068.71 318.104 1068.14 318.26L1067.63 317.956C1067.71 317.478 1067.78 316.998 1067.84 316.518L1067.43 316.181C1064.84 317.306 1065.07 315.35 1063.22 314.29C1062.72 314.611 1062.69 315.161 1062.46 315.87L1061.87 316.129C1061.37 315.664 1061.54 314.811 1061.46 313.902C1060.55 313.961 1060.44 314.592 1059.18 315.125C1057.85 314.645 1058.38 314.227 1057.13 313.322C1053.49 313.655 1050.03 315.178 1046.83 316.858C1056.98 324.645 1057.67 328.456 1054.38 340.961C1053.29 345.132 1048.42 353.018 1044.74 355.289C1040.68 357.789 1033.6 351.499 1029.74 350.012C1027.67 349.178 1024.27 347.628 1022.33 346.419C1016.02 342.49 1005.21 334.014 998.257 332.089C994.309 332.852 989.887 336.041 984.935 336.086C981.582 336.183 978.18 336.13 974.83 336.173C967.386 336.454 960.425 336.098 953.014 335.542C948.447 335.199 943.039 335.594 938.305 334.831C937.616 334.72 934.898 334.864 934.379 335.24C934.987 337.324 943.46 339.234 945.57 340.333C947.254 341.21 945.538 340.756 946.444 342.114L947.41 342.284C948.264 343.757 945.982 344.271 947.625 345.666C947.818 345.331 947.94 345.037 948.115 344.639C949.064 345.33 949.091 349.713 948.961 350.934C948.578 354.513 950.354 360.202 948.523 363.358C947.907 364.427 946.878 365.196 945.679 365.485C942.716 366.178 944.107 364.55 942.594 363.971C942.62 363.981 940.866 364.292 940.479 364.179C937.358 363.261 933.212 360.413 930.469 358.714C930.274 358.193 930.234 358.009 930.126 357.462C929.32 357.314 929.319 357.488 928.419 357.867C928.004 358.951 927.74 358.9 926.787 359.435H926.786L926.857 359.524C928.19 361.168 943.766 368.565 944.023 370.129C940.337 370.187 936.629 367.132 933.808 365.147C931.112 363.251 928.227 361.63 925.714 359.486C925.267 359.022 925.406 359.191 925.357 358.371L925.625 357.867C923.87 357.235 920.073 353.147 919.307 351.711L918.727 351.183C917.038 349.67 913.324 346.386 914.468 345.265L915.861 345.514C912.226 342.736 909.452 338.024 907.459 333.915C899.584 334.909 891.297 335.912 883.392 336.687C881.477 336.874 876.412 335.801 873.861 335.733L852.516 335.088C849.754 335.013 846.482 335.389 843.81 335.165C838.326 334.705 831.89 334.058 826.512 332.928C832.426 338.537 839.69 341.807 839.408 350.375C839.305 353.507 838.991 365.975 836.619 369.296C830.158 372.685 813.575 358.589 808.584 354.906C804.82 352.129 805.229 341.061 804.359 336.937C803.918 334.843 804.384 331.893 804.831 329.722C802.74 330.532 798.892 331.337 796.72 330.859L796.316 330.467C796.631 329.578 796.408 329.861 797.112 329.34C797.659 329.452 798.207 329.568 798.751 329.688C805.142 325.376 815.487 316.234 818.076 308.185C818.399 307.186 819.14 301.016 818.777 300.343C817.57 301.09 816.137 305.624 814.94 307.469C813.624 309.495 810.106 314.786 808.346 316.218C807.059 317.825 805.434 319.606 804.069 321.18C800.855 324.306 800.303 324.045 797.059 326.104C788.959 331.246 783.945 329.78 774.818 330.482C771.092 330.859 767.217 331.913 763.469 331.832C759.112 331.738 753.842 329.851 749.898 327.943C743.09 324.649 736.344 325.796 729.059 324.598C723.883 323.746 718.581 322.149 713.454 320.971C708.022 319.97 702.833 319.31 697.506 317.603C696.209 317.187 693.871 317.305 692.414 317.005C689.847 314.337 686.876 311.31 684.607 308.44L687.678 306.763C692.761 307.473 696.655 309.5 701.048 309.549C698.202 308.189 697.043 307.374 694.492 305.677C693.455 304.988 690.299 303.564 689.11 303.012C689.048 302.283 689.089 301.885 689.59 301.313C692.883 297.552 708.545 293.125 713.817 292.188C719.012 291.266 724.374 291.91 728.994 288.846C731.269 287.337 733.619 285.469 735.574 283.564C739.978 279.271 743.743 274.238 750.459 273.995C756.206 273.788 759.837 276.356 766.288 275.354C771.165 274.597 776.295 272.593 780.909 270.822C782.9 270.059 785.372 268.578 787.466 268.382C795.875 267.597 804.941 270.302 813.678 269.96C818.244 269.781 822.894 268.627 827.439 268.095C831.769 267.588 836.145 267.375 840.486 266.969C847.937 266.272 855.262 265.49 862.764 265.415C866.292 265.38 869.702 266.251 873.19 266.607C878.339 267.134 902.835 268.921 905.715 267.504C906.292 267.22 907.039 266.973 907.687 266.962C909.13 266.936 910.679 267.388 912.131 267.55C914.738 267.841 917.395 267.958 920.013 268.16C923.974 268.467 927.965 268.5 931.912 268.848C935.828 269.193 939.814 269.895 943.744 269.914C945.69 269.923 947.524 269.551 949.428 269.19C955.914 267.96 958.41 267.622 964.853 269.497C961.31 269.458 956.03 269.565 952.776 270.993L952.686 271.169L952.847 271.045C954.824 272.75 974.035 271.561 976.407 270.369C984.036 266.534 994.972 261.136 1001.74 256.09L1003.71 254.779L1003.61 253.86V253.861L1003.71 254.779L1001.74 256.089C1000.88 255.306 1000.78 255.516 1000.31 255.17C1000.1 250.497 1006.55 247.794 1009.9 245.472C1010.41 246 1010.67 246.309 1010.89 246.51C1010.67 246.309 1010.41 246 1009.9 245.472C1010.51 245.153 1011.5 244.198 1012.05 243.98C1015.6 242.588 1018.34 239.407 1021.35 237.63ZM1065.35 323.852C1065.81 327.785 1063.05 328.471 1063.67 330.938L1064.78 331.592C1064.76 332.292 1064.87 332.079 1064.45 332.484L1063.35 331.92L1063.1 332.211C1063.21 332.8 1063.38 333.079 1063.71 333.572C1063.53 334.931 1062.2 338.291 1061.7 339.756C1060.93 342.016 1060.3 340.584 1058.94 341.14C1059.71 341.855 1059.92 341.951 1060.86 342.429C1059.91 345.34 1051.3 359.246 1048.77 359.694C1045.95 357.353 1054.58 346.062 1056.01 343.344C1056.9 341.635 1057.53 340.205 1058.24 338.39L1058.63 338.153L1058.81 338.275C1058.81 338.277 1058.81 338.278 1058.81 338.279C1059.01 339.02 1059.04 339.133 1059.5 339.741L1059.9 339.787C1060.06 338.605 1059.82 338.559 1059.34 337.348C1059.8 336.14 1060.36 334.235 1061.24 333.393C1062.3 333.37 1061.59 333.934 1062.62 334.46C1063.04 333.843 1062.99 334.111 1062.89 333.459L1061.86 332.876C1061.12 331.421 1064.36 327.494 1065.07 324.326L1065.07 324.398L1065.35 323.852ZM925.516 356.844C925.544 356.878 925.57 356.912 925.596 356.944C925.487 356.807 925.354 356.649 925.198 356.479L925.516 356.844ZM921.921 353.424C922.187 353.644 922.459 353.875 922.729 354.111C922.459 353.875 922.187 353.644 921.921 353.424ZM920.21 352.13C920.319 352.201 920.433 352.281 920.554 352.366C920.357 352.227 920.175 352.103 920.011 352.004L920.21 352.13ZM920.153 345.197C921.182 346.422 923.396 348.37 924.8 348.875L924.942 348.922L924.8 348.874C924.364 348.717 923.85 348.422 923.318 348.052C923.082 347.887 922.842 347.708 922.604 347.521C922.246 347.239 921.891 346.937 921.559 346.634C921.448 346.533 921.339 346.431 921.233 346.33C920.811 345.928 920.437 345.535 920.153 345.197ZM947.436 345.975C947.472 345.919 947.504 345.863 947.536 345.811L947.274 345.695L947.436 345.975ZM723.773 328.191C724.428 328.581 724.35 328.805 724.707 329.631C725.457 330.08 725.227 329.952 726.215 329.898C726.627 329.08 725.546 329.504 725.44 328.412C727.472 327.911 727.732 329.658 728.913 329.715C732.916 329.907 737.53 328.242 741.482 328.895C743.042 329.152 749.881 331.03 750.743 332.206C749.43 332.562 743.233 330.58 741.395 330.094C738.852 330.714 736.991 331.699 734.638 332.347C730.939 333.364 724.978 331.258 721.75 329.301L722.812 328.761L723.773 328.191ZM715.738 326.124C717.43 326.261 720.575 327.566 722.21 328.076L722.812 328.761L721.75 329.3C719.919 328.814 717.444 327.466 715.789 326.5L715.738 326.124ZM715.634 326.118L715.438 326.152L715.473 326.11C715.525 326.11 715.578 326.115 715.634 326.118ZM715.738 326.124C715.703 326.121 715.668 326.12 715.634 326.118L715.735 326.102L715.738 326.124ZM722.281 320.101H722.282H722.281ZM1044.71 313.713C1044.58 313.768 1044.44 313.836 1044.3 313.928L1044.49 314.086V314.085L1044.3 313.928C1044.44 313.836 1044.58 313.768 1044.71 313.713ZM1045.12 313.961C1045.2 313.962 1045.28 313.962 1045.36 313.961C1045.28 313.962 1045.2 313.961 1045.12 313.96L1044.88 313.952L1045.12 313.961ZM1046.08 313.911C1045.92 313.932 1045.76 313.946 1045.6 313.954C1045.76 313.946 1045.92 313.932 1046.08 313.911ZM1048.41 312.814C1048.3 312.936 1048.18 313.046 1048.06 313.145C1047.87 313.293 1047.67 313.418 1047.45 313.521C1047.31 313.59 1047.16 313.649 1047.01 313.7C1046.94 313.726 1046.86 313.749 1046.79 313.771V313.771C1047.4 313.601 1047.97 313.301 1048.41 312.815V312.814ZM1046.69 313.101C1046.6 313.142 1046.52 313.179 1046.43 313.212H1046.44C1046.52 313.179 1046.6 313.142 1046.69 313.101H1046.69ZM782.734 287.873C781.012 283.29 775.802 282.458 771.596 282.948C768.522 283.09 765.925 283.179 763.774 285.726C758.407 292.077 762.018 299.619 767.307 304.542C769.432 306.521 771.688 306.544 774.272 306.3C774.445 306.283 774.621 306.264 774.797 306.243C776.091 306.079 778.242 305.887 779.401 305.442C787.395 302.379 785.039 293.999 782.734 287.873ZM746.778 287.472C744.829 287.877 744.728 288.587 743.472 289.875C738.876 294.585 741.919 297.287 743.942 301.918C745.362 301.932 748.247 302.026 749.576 301.875C756.081 300.777 755.003 295.927 755.157 291.102C755.227 288.916 748.336 287.579 746.778 287.472ZM770.034 288.618C776.141 287.52 779.074 291.557 778.714 297.231C777.612 298.845 776.953 299.323 775.363 300.318C766.911 301.255 763.085 294.221 770.034 288.618ZM745.993 291.031C747.079 291.294 748.985 291.598 749.868 292.114C752.27 293.522 751.769 296.428 750.485 298.387C744.149 298.649 741.121 297.763 745.164 291.338L745.993 291.031ZM712.574 283.391C713.124 283.652 713.362 284.296 713.555 284.813C713.346 285.468 712.631 286.004 711.997 286.222C705.276 288.53 698.738 290.798 692.374 294.037C691.789 294.334 689.439 296.891 688.721 297.547C688.51 297.535 688.017 297.427 687.784 297.383C686.988 294.582 692.642 291.182 694.893 290.282C700.777 287.928 706.54 285.365 712.574 283.391ZM687.483 290.525C687.489 293.531 686.541 295.175 684.456 297.162C682.999 295.605 686.18 291.46 687.229 290.269L687.483 290.525ZM1141.55 277.719C1141.64 278.479 1132.04 294.379 1130.66 296.431L1130.24 296.219L1130.18 295.779C1133.95 290.021 1136.46 282.378 1141.27 277.629L1141.55 277.719ZM874.023 288.754C873.672 288.86 873.37 288.991 873.174 289.158L873.348 289.432L873.724 289.446V289.445L873.348 289.432L873.175 289.158C873.214 289.125 873.258 289.093 873.305 289.063C873.399 289.001 873.509 288.945 873.63 288.894C873.751 288.842 873.883 288.796 874.023 288.754H874.023ZM876.421 288.297C875.967 288.376 875.313 288.458 874.693 288.587L875.161 288.498C875.317 288.471 875.471 288.447 875.62 288.424C875.918 288.377 876.195 288.337 876.422 288.297L876.586 288.285L876.421 288.297ZM1147.75 267.835C1147.45 268.462 1146.47 269.65 1145.99 270.186L1144.59 272.908L1144.59 272.909C1144.06 273.899 1143.58 274.899 1142.88 275.771L1142.58 275.708C1142.77 274.498 1143.49 273.459 1144.12 272.396L1144.42 271.763C1144.71 271.128 1145.03 270.498 1145.47 269.963C1146.04 269.098 1146.72 267.882 1147.55 267.273L1147.75 267.835ZM1049.39 275.354C1049.32 275.392 1049.26 275.425 1049.2 275.452C1049.32 275.398 1049.45 275.321 1049.6 275.225L1049.39 275.354ZM1051.66 273.234C1051.34 273.651 1050.94 274.086 1050.54 274.464C1051.02 274.01 1051.5 273.475 1051.84 272.987L1051.66 273.234ZM796.338 263.049V264.46C797.118 264.523 797.742 263.668 798.294 263.095L798.665 263.13L798.196 264.253C798.903 264.662 800.181 264.137 801.573 264.541C803.415 265.076 805.175 265.832 806.908 266.616L807.522 266.66C808.885 266.777 809.823 267.006 811.287 267.336C809.901 267.463 807.992 267.445 806.557 267.49V267.491C804.658 267.203 795.857 265.662 794.903 264.497C794.857 263.577 795.193 263.191 796.078 262.79L796.338 263.049ZM1147.89 267.435L1147.56 267.267C1147.63 267.217 1147.7 267.17 1147.77 267.129L1147.89 267.435ZM1147.56 267.267C1147.56 267.269 1147.56 267.271 1147.55 267.273L1147.55 267.261L1147.56 267.267ZM1005.35 253.709C1005.25 253.79 1005.15 253.868 1005.04 253.942L1005.35 253.709C1005.4 253.669 1005.45 253.627 1005.5 253.585L1005.35 253.709ZM324.45 159.082C330.729 159.082 336.762 160.805 340.947 165.729C340.701 163.39 340.578 159.821 343.778 159.82H356.582C359.906 159.943 363.846 158.959 363.969 163.391C363.969 183.335 363.969 203.156 363.846 223.1C363.846 228.147 362.984 233.195 360.398 237.627C354.366 249.076 341.193 250.677 329.128 250.677C317.432 250.677 302.167 250.061 298.228 236.519C297.489 234.549 297.242 232.456 297.242 230.363C297.242 227.532 296.75 223.1 300.69 223.1H316.448C317.679 223.1 318.664 223.592 319.525 224.577C322.357 228.517 327.282 228.148 331.591 228.024C341.193 227.655 340.578 221.253 340.947 213.743H340.701C337.5 219.776 330.483 221.13 323.958 221.13C314.232 221.13 302.536 218.421 298.474 208.449C292.318 193.06 293.18 166.469 312.139 160.929C315.955 159.944 320.264 159.082 324.45 159.082ZM1010.63 249.015C1010.63 249.043 1010.63 249.072 1010.63 249.101L1010.63 249.015C1010.64 248.958 1010.65 248.903 1010.67 248.85L1010.63 249.015ZM48.0421 159.697C64.6618 159.697 73.4023 168.931 75.4952 185.305C76.1107 190.106 76.2345 194.908 76.1114 199.832C75.742 217.067 70.0785 232.456 49.6426 232.456C41.6404 232.456 32.7759 230.117 28.0977 223.1V246.121C28.0977 247.721 27.6054 248.707 25.3897 248.953H3.47565C2.98322 248.953 2.49059 248.953 1.87506 248.83C0.643949 248.338 0.151427 247.598 0.151427 246.367V163.021C0.151427 161.052 1.01374 160.313 2.86041 160.313H25.0196C26.7431 160.313 27.6055 161.175 27.6055 162.898V168.069C28.221 167.577 29.0828 166.961 29.6983 166.223C34.7459 161.421 41.2709 159.697 48.0421 159.697ZM1011.17 248.154C1011.08 248.234 1010.99 248.317 1010.92 248.404L1011.04 248.271C1011.08 248.231 1011.12 248.192 1011.17 248.154ZM1029.44 241.774C1028.96 242.071 1028.49 242.382 1028.03 242.7C1027.56 243.019 1027.11 243.345 1026.68 243.671C1026.26 243.997 1025.85 244.324 1025.46 244.644V244.645C1026.61 243.685 1028 242.664 1029.44 241.774ZM209.847 160.437C214.894 160.437 216.494 161.298 216.494 166.469V191.46C216.494 193.43 218.587 194.415 219.695 194.415C221.542 194.415 222.896 192.691 222.897 190.968V165.729C222.897 162.775 224.251 160.437 226.836 160.437H245.918C248.503 160.437 250.719 162.406 250.719 164.745V211.65C250.719 226.67 242.101 236.396 227.574 238.119C223.512 238.365 219.325 238.365 215.263 238.365C208.861 238.365 202.459 237.996 196.058 237.504C192.364 237.135 189.163 234.426 188.917 230.732C188.671 226.916 188.794 222.977 188.794 219.16C188.794 215.467 191.133 213.128 194.703 213.128C195.688 213.128 196.919 213.374 197.904 213.866C199.997 214.605 202.091 215.466 204.307 216.082C206.399 216.698 208.738 217.19 211.077 217.19C217.725 217.19 222.897 213.866 222.897 206.356C222.897 204.756 221.542 204.141 220.68 204.141C220.311 204.141 219.818 204.387 219.449 204.756C219.326 204.879 219.079 205.125 219.079 205.125C216.001 209.065 212.801 210.296 207.753 210.296C203.321 210.296 199.136 208.819 195.565 206.233C190.026 202.417 188.425 195.769 188.425 188.875C188.425 180.873 188.548 172.747 188.548 164.745C188.548 162.406 190.518 160.437 192.733 160.437H209.847ZM142.199 159.451C144.661 159.205 147.124 158.959 149.463 159.082C154.141 159.082 158.82 159.574 163.252 161.175C170.885 164.376 177.286 170.285 178.764 178.656C179.01 181.118 178.887 183.458 179.01 185.797V229.624C179.01 229.87 179.01 230.363 178.887 230.732V230.855C178.641 231.594 178.025 232.087 177.163 232.333H177.04C176.548 232.333 176.178 232.456 175.563 232.456H160.543C158.82 232.456 157.219 232.21 156.973 229.994V226.67C156.973 226.424 156.727 226.178 156.481 226.424H156.357C153.157 230.363 148.847 232.58 143.923 233.688C140.722 234.549 137.152 234.549 133.828 234.303C122.01 232.579 115.361 226.546 113.638 214.358C113.268 209.927 113.638 205.494 115.361 201.432C118.932 193.553 126.195 190.967 134.074 189.982C138.629 189.367 143.307 189.613 147.862 189.613H154.757C155.249 189.613 155.742 189.613 156.111 189.49H156.234C156.727 189.49 157.095 188.998 157.096 188.629C157.096 183.458 157.096 178.165 150.571 177.303C148.971 177.18 147.247 177.18 145.77 177.303C144.292 177.303 142.815 177.672 141.461 178.41C140.107 179.272 139.245 180.749 139.122 182.473C138.999 183.211 138.999 183.827 138.876 184.565C138.876 185.55 138.383 186.166 137.152 186.166H118.932C117.577 186.166 116.716 185.304 116.716 184.073C116.716 181.365 116.716 178.78 117.454 176.317C120.778 165.976 131.489 159.451 142.199 159.451ZM400.906 159.451C403.368 159.205 405.831 158.959 408.17 159.082C412.848 159.082 417.526 159.574 421.958 161.175C429.591 164.376 435.992 170.285 437.47 178.656C437.716 181.118 437.593 183.458 437.716 185.797V229.624C437.716 229.87 437.716 230.363 437.593 230.732V230.855C437.347 231.594 436.731 232.087 435.869 232.333H435.746C435.254 232.333 434.885 232.456 434.27 232.456H419.25C417.527 232.456 415.926 232.21 415.68 229.994V226.67C415.68 226.424 415.433 226.178 415.187 226.424H415.064C411.863 230.363 407.554 232.58 402.63 233.688C399.429 234.549 395.858 234.549 392.534 234.303C380.716 232.579 374.068 226.546 372.345 214.358C371.975 209.926 372.344 205.494 374.067 201.432C377.638 193.553 384.901 190.967 392.78 189.982C397.335 189.367 402.014 189.613 406.569 189.613H413.463C413.955 189.613 414.448 189.613 414.817 189.49H414.94C415.433 189.49 415.803 188.998 415.803 188.629C415.803 183.458 415.802 178.165 409.277 177.303C407.677 177.18 405.954 177.18 404.477 177.303C402.999 177.303 401.521 177.671 400.167 178.41C398.813 179.272 397.951 180.749 397.828 182.473C397.705 183.211 397.705 183.827 397.582 184.565C397.582 185.55 397.09 186.166 395.858 186.166H377.638C376.284 186.166 375.422 185.304 375.422 184.073C375.422 181.365 375.423 178.78 376.161 176.317C379.485 165.976 390.196 159.451 400.906 159.451ZM660.349 158.959C661.58 158.959 662.934 158.959 664.288 159.082C677.215 159.575 691.742 164.622 690.388 180.134C690.142 182.104 688.91 183.089 686.94 183.089C681.647 183.212 676.229 183.089 670.936 183.212C666.135 182.965 668.596 177.179 663.426 176.563C662.195 176.317 660.963 176.194 659.732 176.194C657.886 176.194 656.163 176.44 654.44 177.056C651.608 177.671 651.608 181.857 654.315 182.842C667.735 186.781 688.664 185.181 692.357 202.663C695.681 219.037 685.093 231.594 669.089 233.317C665.519 233.687 661.702 234.057 657.886 234.057C649.268 234.057 640.527 232.456 633.756 227.039C628.339 222.853 625.016 216.082 626.37 209.312C627.355 205.618 637.203 205.618 638.927 205.495H646.929C653.7 206.234 645.821 213.989 659.117 213.989C661.826 213.989 665.888 213.989 667.488 211.65C669.089 209.681 667.488 206.603 665.642 205.987C652.592 202.171 631.909 203.894 628.216 187.028C623.538 165.361 642.498 158.959 660.349 158.959ZM101.073 140.123C103.659 140 106.244 141.477 106.244 144.309C106.367 158.343 105.998 214.974 105.998 229.009C105.998 233.195 101.32 233.194 98.7344 233.194H88.2706C85.8083 233.317 83.2227 231.84 83.2227 229.255C83.0996 201.309 83.0997 173.363 83.0997 145.54C82.9766 142.955 84.3307 140.369 87.0391 140.246C91.2247 140 96.8876 140.246 101.073 140.123ZM516.936 159.082C521.121 159.082 525.43 160.067 529.246 161.79C541.065 166.714 544.39 178.656 544.39 192.075C544.39 204.263 544.758 216.698 544.266 229.009C543.65 232.948 538.972 232.333 535.772 232.456C531.955 232.456 528.262 232.456 524.445 232.333C522.229 232.333 520.506 230.856 520.26 228.64C519.89 215.836 520.26 203.155 520.137 190.352C520.137 186.289 517.058 184.196 514.104 184.196C511.518 184.196 508.933 185.674 508.44 188.875C507.456 202.294 508.564 215.959 507.825 229.378C507.579 231.84 504.747 232.456 502.408 232.333C497.484 232.456 492.436 232.456 487.512 232.333C484.803 232.456 482.464 230.732 482.587 227.777C482.464 215.59 482.587 203.279 482.587 190.968C482.71 187.89 481.602 184.319 478.155 184.073C473.97 183.458 470.276 186.659 470.399 191.091V227.654C470.399 229.993 469.045 231.841 466.829 232.21C461.782 232.702 456.611 232.333 451.44 232.456C450.702 232.456 449.963 232.333 449.102 232.087C447.378 231.471 446.393 229.994 446.393 228.024V165.114C446.393 162.775 447.378 161.421 449.348 160.806C454.149 160.067 459.073 160.56 463.874 160.437C465.844 160.437 468.553 160.805 468.553 163.514C468.553 164.745 469.046 165.483 469.661 165.483C470.031 165.483 470.646 165.237 471.138 164.499C474.216 161.052 478.894 159.205 483.572 159.205C487.881 159.205 492.19 160.805 495.022 164.129C496.376 165.729 497.484 166.346 498.346 166.346C499.7 166.346 500.808 165.114 502.777 163.637C506.84 160.436 511.888 159.082 516.936 159.082ZM551.462 194.538C552.201 172.132 564.758 158.466 588.888 159.943C612.402 160.313 620.528 178.779 617.573 199.708C617.204 201.185 616.095 201.802 614.741 201.802H575.223C575.223 206.234 577.193 211.404 582.117 212.02C583.225 212.266 584.334 212.389 585.441 212.389C589.134 212.389 592.827 211.035 594.059 207.219C594.551 206.48 595.044 205.987 595.905 205.987H615.11C621.143 206.357 614.003 220.022 611.91 222.361C605.016 231.471 592.582 232.949 581.994 232.333C559.834 232.333 550.847 214.974 551.462 194.538ZM142.815 201.925C140.23 201.925 137.398 202.171 136.536 205.125C136.044 207.095 136.044 208.942 136.413 210.788C137.398 215.589 142.446 215.836 146.386 215.836C147.986 215.836 149.586 215.713 151.187 215.221C154.511 214.359 156.603 212.019 156.85 208.449C156.973 206.726 156.973 205.003 156.973 203.525C156.973 202.417 156.603 201.925 155.372 201.925H142.815ZM401.522 201.925C398.936 201.925 396.105 202.171 395.243 205.125C394.751 207.095 394.751 208.942 395.12 210.788C396.105 215.589 401.152 215.836 405.092 215.836C406.692 215.836 408.293 215.713 409.894 215.221C413.217 214.359 415.31 212.019 415.557 208.449C415.68 206.726 415.68 205.003 415.68 203.525C415.68 202.417 415.31 201.925 414.079 201.925H401.522ZM37.9463 182.35C36.9617 182.35 35.9769 182.473 34.9922 182.719C31.7914 183.211 29.5749 184.812 28.4669 188.013C27.8513 189.49 27.8517 191.091 27.7286 192.568C27.7286 195.892 27.4822 199.093 28.0977 202.294C28.8364 205.372 30.437 207.587 33.5147 208.449C35.6075 209.188 37.7002 209.188 39.793 208.818C43.9788 208.326 46.4412 205.002 46.9337 201.555C47.3029 199.215 47.426 190.599 46.8106 188.629C46.3182 185.797 44.4713 183.704 41.5167 182.966C40.4087 182.596 39.1775 182.35 37.9463 182.35ZM330.606 180.38C329.498 180.38 328.266 180.503 327.035 180.749C320.757 181.857 319.28 188.875 320.265 194.292C320.757 199.339 325.435 201.802 330.113 201.802C334.422 201.802 338.731 199.708 339.839 195.399C340.208 194.045 340.332 192.568 340.455 191.337C340.824 184.196 336.761 180.38 330.606 180.38ZM585.194 179.519C580.393 179.519 575.592 182.843 575.346 189.121H594.551C594.551 182.719 589.873 179.519 585.194 179.519ZM1151.65 54.7842C1153.74 54.9073 1156.08 55.3996 1157.68 57.123C1159.53 58.6004 1160.14 60.4471 1160.14 62.6631C1160.27 66.8489 1160.27 71.0349 1160.27 75.2207C1160.27 79.7757 1160.39 84.5768 1160.27 89.2549C1160.27 98.7344 1156.08 107.721 1145.99 109.814C1144.02 110.061 1142.05 110.185 1140.08 110.308H1132.69C1131.83 110.308 1130.84 110.184 1130.1 110.184C1129.12 110.06 1128.87 109.569 1128.87 108.707V98.3652C1128.87 97.7497 1129 97.011 1129.12 96.3955C1129.49 95.0414 1130.35 94.0569 1131.58 93.6875C1132.81 93.1951 1133.92 93.0715 1134.91 92.7021C1137.24 92.0866 1139.09 90.9787 1139.09 88.3936H1133.06C1127.27 88.0242 1124.93 84.8232 1124.93 79.1602C1124.81 73.7433 1124.81 68.4491 1124.81 63.0322C1124.81 58.7235 1126.9 55.892 1131.21 55.0303C1132.44 54.9072 1133.43 54.7842 1134.66 54.7842H1151.65ZM126.86 16.25C133.508 16.25 140.403 17.2348 146.313 20.1895C157.023 25.3601 164.287 36.6872 165.395 48.5059C165.641 50.7217 165.764 52.9375 166.01 55.1533C165.517 79.6524 151.975 95.288 125.999 95.2881C104.455 95.2881 88.9429 84.4539 86.3575 61.9248C85.865 58.6008 85.7411 55.3991 85.9874 52.1982C86.4799 43.95 88.8198 36.3168 93.8672 29.6689C101.869 18.8356 114.18 16.25 126.86 16.25ZM541.445 19.4512C543.908 19.205 546.37 18.9589 548.709 19.082C553.387 19.0821 558.065 19.5744 562.497 21.1748C570.13 24.3757 576.531 30.2849 578.009 38.6563C578.255 41.1184 578.132 43.4578 578.255 45.7969V89.624C578.255 89.8702 578.255 90.3631 578.132 90.7324V90.8555C577.886 91.5941 577.27 92.0868 576.408 92.333H576.285C575.793 92.3331 575.424 92.456 574.809 92.4561H559.789C558.066 92.4561 556.465 92.2098 556.219 89.9941V86.6699C556.219 86.4237 555.972 86.1776 555.726 86.4238H555.603C552.402 90.3631 548.093 92.5795 543.169 93.6875C539.968 94.5493 536.397 94.549 533.073 94.3027C521.255 92.5791 514.607 86.5463 512.884 74.3584C512.515 69.9265 512.883 65.4942 514.607 61.4316C518.177 53.5528 525.44 50.9673 533.319 49.9824C537.875 49.3669 542.553 49.6133 547.108 49.6133H554.002C554.494 49.6133 554.987 49.6133 555.357 49.4902H555.48C555.972 49.4902 556.342 48.9982 556.342 48.6289C556.342 43.4582 556.341 38.1645 549.816 37.3027C548.216 37.1796 546.493 37.1796 545.016 37.3027C543.538 37.3027 542.06 37.6715 540.706 38.4102C539.352 39.2719 538.49 40.7493 538.367 42.4727C538.244 43.2112 538.244 43.8269 538.121 44.5654C538.121 45.5503 537.629 46.166 536.398 46.166H518.177C516.823 46.1659 515.961 45.3043 515.961 44.0732C515.961 41.3648 515.962 38.7796 516.7 36.3174C520.024 25.9761 530.735 19.4512 541.445 19.4512ZM622.001 18.959C623.232 18.959 624.586 18.9589 625.94 19.082C638.867 19.5745 653.394 24.6218 652.04 40.1338C651.794 42.1036 650.563 43.0889 648.593 43.0889C643.299 43.212 637.883 43.0888 632.589 43.2119C627.788 42.9657 630.25 37.1792 625.079 36.5635C623.848 36.3173 622.617 36.1944 621.386 36.1943C619.539 36.1943 617.815 36.4402 616.092 37.0557C613.26 37.6712 613.26 41.8569 615.969 42.8418C629.388 46.7813 650.316 45.1814 654.01 62.6631C657.334 79.0368 646.747 91.5937 630.742 93.3174C627.172 93.6867 623.356 94.0566 619.539 94.0566C610.921 94.0566 602.18 92.4559 595.409 87.0391C589.992 82.8534 586.668 76.0825 588.023 69.3115C589.007 65.6182 598.857 65.6182 600.58 65.4951H608.582C615.353 66.2338 607.474 73.9891 620.77 73.9893C623.478 73.9893 627.541 73.9895 629.142 71.6504C630.742 69.6806 629.142 66.6029 627.295 65.9873C614.245 62.1709 593.563 63.8943 589.869 47.0283C585.191 25.3608 604.15 18.959 622.001 18.959ZM73.4024 0C75.1259 0 76.8496 0.738238 76.8497 2.83105V89.1318C76.8497 91.1016 75.7413 92.333 73.7715 92.333H56.2901C54.0741 92.333 53.212 91.2247 53.0889 89.1318V85.5615C52.9656 85.0694 52.3508 84.8234 52.1046 85.1924C46.6877 91.4711 40.1624 93.5645 32.1602 93.5645C16.5253 93.5644 5.0763 84.8232 1.38287 69.3115C0.151761 64.264 -0.0947308 59.2156 0.0283803 54.0449C0.151514 48.2589 0.766723 42.4725 2.61334 36.9326C6.79917 23.883 18.1259 17.4814 31.545 17.4814C39.0547 17.4815 45.4568 19.5738 51.6124 24.1289C52.351 24.6213 52.5967 24.3754 52.5967 23.5137V3.2002C52.5968 1.72312 53.2125 0.73857 54.6895 0.123047C54.9357 -6.26621e-05 55.3056 0 55.5518 0H73.4024ZM1009.47 19.082C1013.65 19.0821 1017.96 20.0666 1021.78 21.79C1033.6 26.7144 1036.92 38.6563 1036.92 52.0752C1036.92 64.2631 1037.29 76.6977 1036.8 89.0088C1036.18 92.9482 1031.5 92.333 1028.3 92.4561C1024.49 92.4561 1020.79 92.4561 1016.98 92.333C1014.76 92.333 1013.04 90.8556 1012.79 88.6396C1012.42 75.8361 1012.79 63.1551 1012.67 50.3516C1012.67 46.2892 1009.59 44.1963 1006.63 44.1963C1004.05 44.1963 1001.46 45.6742 1000.97 48.875C999.987 62.2939 1001.1 75.959 1000.36 89.3779C1000.11 91.8401 997.279 92.4561 994.94 92.333C990.015 92.4561 984.967 92.4561 980.043 92.333C977.335 92.4561 974.995 90.732 975.118 87.7773C974.995 75.5896 975.118 63.2787 975.118 50.9678C975.241 47.89 974.134 44.3195 970.687 44.0732C966.501 43.4577 962.808 46.6588 962.931 51.0908V87.6543C962.931 89.9934 961.576 91.8406 959.36 92.21C954.313 92.7024 949.142 92.333 943.972 92.4561C943.233 92.4561 942.494 92.3331 941.632 92.0869C939.909 91.4713 938.924 89.9939 938.924 88.0244V25.1143C938.924 22.7752 939.909 21.4212 941.879 20.8057C946.68 20.0671 951.604 20.5596 956.405 20.4365C958.375 20.4365 961.084 20.8054 961.084 23.5137C961.084 24.7445 961.576 25.4831 962.191 25.4834C962.561 25.4834 963.177 25.2375 963.669 24.499C966.747 21.0519 971.425 19.2051 976.104 19.2051C980.412 19.2051 984.721 20.8051 987.553 24.1289C988.907 25.7293 990.015 26.3457 990.877 26.3457C992.231 26.3455 993.339 25.1139 995.309 23.6367C999.371 20.4359 1004.42 19.082 1009.47 19.082ZM924.242 26.8379C926.458 26.7149 928.551 27.8231 928.797 30.2852C929.289 50.3521 928.92 63.2788 929.043 83.2227C928.92 86.6698 929.905 92.0868 925.227 92.333C919.933 92.4561 914.886 92.4561 909.592 92.4561C907.622 92.5792 904.667 91.348 904.667 88.8857C904.298 67.4646 904.667 53.3069 904.667 31.7627C904.421 28.9311 906.268 26.961 909.223 26.8379H924.242ZM218.818 17.7275C239.747 17.7277 252.304 32.6243 252.304 52.9375V86.916C252.304 90.1168 250.335 92.3329 247.257 92.333C240.486 92.4561 233.714 92.4561 227.19 92.4561C226.451 92.456 225.835 92.3331 225.343 92.0869C223.127 91.3482 221.896 89.8704 221.649 87.5313V54.292C221.649 48.2597 217.956 43.3351 211.432 43.335C208.477 43.335 205.892 44.3201 203.799 46.6592C201.583 48.8752 201.459 51.9526 201.459 54.9072V86.4238C201.459 89.3784 200.351 92.0867 196.904 92.333C194.688 92.4561 192.349 92.4561 190.133 92.4561H179.546C178.561 92.4561 177.699 92.3331 176.591 92.21C174.744 91.7175 173.267 90.1171 173.267 88.0244C173.144 82.7306 173.144 77.3133 173.144 72.0195V26.3457C173.144 23.8835 173.144 20.1895 176.468 20.1895C181.269 20.0663 185.948 20.0664 190.749 20.0664C192.349 20.0664 193.827 20.0664 195.304 20.1895C196.781 20.1895 197.396 20.8053 197.643 22.2822C197.766 22.6515 197.766 23.2674 197.889 23.7598C198.135 24.1291 198.382 24.622 198.751 24.7451C198.997 24.7451 199.489 24.6219 199.735 24.376C203.552 21.052 208.108 19.0814 213.155 18.3428C215.125 17.9735 216.972 17.7275 218.818 17.7275ZM335.475 7.63281C337.075 7.63294 338.552 9.10972 338.675 10.71C338.798 12.926 338.675 15.1423 338.675 17.4814V20.5596H350.986C353.326 20.5596 355.911 22.1597 356.403 24.9912C356.526 25.2372 356.526 25.4833 356.526 25.6064V38.1641C356.526 40.7493 354.803 42.7194 352.341 43.335C351.479 43.4581 350.74 43.458 349.878 43.458C346.431 43.5811 342.861 43.458 339.414 43.458H338.675V44.0732C338.675 49.8595 338.552 55.7694 338.675 61.6787C338.675 64.6331 340.645 66.6025 343.354 66.7256C346.431 66.8487 349.263 66.8486 352.341 66.8486C354.68 66.8487 356.403 68.5723 356.403 70.7881C356.526 75.8356 356.526 80.884 356.526 86.0547C356.28 92.0867 351.356 92.456 346.801 92.4561H333.997C318.978 92.4561 308.883 83.2228 308.883 67.5879V43.5811H304.573C303.466 43.458 302.358 43.458 301.373 43.0889C299.526 42.5964 298.172 40.9952 298.172 39.0254V25.6064C298.172 23.7598 300.019 21.5442 301.988 20.9287C303.096 20.6825 304.328 20.5596 305.436 20.4365C308.636 20.3133 312.329 18.2202 313.561 14.8965C314.053 13.7885 314.053 12.8032 314.176 11.6953C314.299 9.3562 315.777 7.75586 318.116 7.75586C323.902 7.75585 329.689 7.63281 335.475 7.63281ZM698.051 7.63281C699.651 7.63281 701.129 9.10963 701.252 10.71C701.375 12.926 701.252 15.1423 701.252 17.4814V20.5596H713.564C715.903 20.5597 718.488 22.1598 718.981 24.9912C719.103 25.2372 719.104 25.4833 719.104 25.6064V38.1641C719.104 40.7494 717.379 42.7194 714.917 43.335C714.055 43.458 713.317 43.458 712.455 43.458C709.008 43.5811 705.437 43.458 701.99 43.458H701.252V44.0732C701.252 49.8595 701.129 55.7694 701.252 61.6787C701.252 64.6331 703.222 66.6025 705.931 66.7256C709.008 66.8487 711.84 66.8486 714.917 66.8486C717.256 66.8486 718.98 68.5723 718.981 70.7881C719.104 75.8356 719.104 80.884 719.104 86.0547C718.857 92.0868 713.932 92.4561 709.377 92.4561H696.574C681.555 92.4561 671.459 83.2228 671.459 67.5879V43.5811H667.15C666.042 43.4579 664.934 43.4582 663.949 43.0889C662.103 42.5964 660.748 40.9952 660.748 39.0254V25.6064C660.748 23.76 662.595 21.5444 664.565 20.9287C665.672 20.6825 666.904 20.5596 668.012 20.4365C671.213 20.3134 674.907 18.2203 676.138 14.8965C676.63 13.7885 676.63 12.8033 676.753 11.6953C676.876 9.35621 678.353 7.75588 680.692 7.75586C686.479 7.75586 692.265 7.63282 698.051 7.63281ZM873.205 7.63281C874.805 7.63281 876.283 9.10964 876.406 10.71C876.529 12.926 876.406 15.1423 876.406 17.4814V20.5596H888.718C891.057 20.5597 893.642 22.1598 894.135 24.9912C894.258 25.2372 894.258 25.4833 894.258 25.6064V38.1641C894.258 40.7494 892.534 42.7194 890.071 43.335C889.21 43.458 888.471 43.458 887.609 43.458C884.163 43.5811 880.592 43.458 877.146 43.458H876.406V44.0732C876.406 49.8595 876.283 55.7694 876.406 61.6787C876.407 64.6331 878.377 66.6025 881.085 66.7256C884.163 66.8487 886.994 66.8486 890.071 66.8486C892.41 66.8486 894.135 68.5723 894.135 70.7881C894.258 75.8356 894.258 80.884 894.258 86.0547C894.011 92.0868 889.086 92.4561 884.531 92.4561H871.729C856.709 92.4561 846.613 83.2228 846.613 67.5879V43.5811H842.305C841.197 43.4579 840.088 43.4582 839.104 43.0889C837.257 42.5964 835.903 40.9951 835.903 39.0254V25.6064C835.904 23.7598 837.75 21.5442 839.72 20.9287C840.828 20.6826 842.058 20.5596 843.166 20.4365C846.367 20.3134 850.061 18.2203 851.292 14.8965C851.784 13.7885 851.784 12.8032 851.907 11.6953C852.03 9.35625 853.508 7.75593 855.847 7.75586C861.633 7.75586 867.419 7.63282 873.205 7.63281ZM725.539 54.5381C726.278 32.132 738.835 18.4662 762.965 19.9434C786.479 20.3127 794.605 38.7793 791.65 59.708C791.281 61.1853 790.173 61.8018 788.818 61.8018H749.3C749.3 66.2337 751.27 71.404 756.194 72.0195C757.302 72.2657 758.411 72.3887 759.519 72.3887C763.212 72.3886 766.905 71.0347 768.136 67.2188C768.628 66.4801 769.121 65.9874 769.982 65.9873H789.188C795.22 66.3566 788.08 80.0222 785.987 82.3613C779.093 91.4714 766.659 92.9485 756.071 92.333C733.911 92.333 724.924 74.9744 725.539 54.5381ZM1043.99 54.5381C1044.73 32.1319 1057.29 18.4661 1081.42 19.9434C1104.93 20.3127 1113.06 38.7793 1110.1 59.708C1109.74 61.1853 1108.63 61.8018 1107.27 61.8018H1067.75C1067.75 66.2337 1069.72 71.404 1074.65 72.0195C1075.76 72.2657 1076.86 72.3886 1077.97 72.3887C1081.66 72.3887 1085.36 71.0349 1086.59 67.2188C1087.08 66.4801 1087.57 65.9873 1088.44 65.9873H1107.64C1113.67 66.3566 1106.53 80.0222 1104.44 82.3613C1097.55 91.471 1085.11 92.9485 1074.53 92.333C1052.37 92.333 1043.38 74.9744 1043.99 54.5381ZM425.537 22.2822C427.63 22.2823 429.107 23.7604 429.6 26.4688C430.954 34.594 431.2 44.1969 431.692 52.5684C431.692 53.3071 431.692 54.7846 431.939 56.1387C432.185 56.8773 432.308 57.739 432.801 58.4775C433.293 59.2161 434.032 59.9551 435.14 59.9551C435.755 59.9551 436.863 59.8315 437.602 58.6006C437.848 58.2312 437.972 57.7384 438.095 57.4922C438.095 57.2461 438.218 57 438.218 56.7539C440.064 47.0281 441.049 36.8098 443.142 27.084C443.511 25.4836 444.127 24.1294 444.988 23.2676C445.727 22.652 446.589 22.2822 447.697 22.2822H467.148C469.857 22.2822 471.458 24.1292 472.319 27.4531C474.412 36.9327 474.904 47.0283 477.243 56.3848C477.489 57.6159 478.475 59.5849 480.444 59.585C481.429 59.585 482.168 58.97 482.66 58.2314C483.399 56.631 483.769 54.661 483.769 52.9375C484.63 44.1966 484.753 35.4557 485.738 26.8379C485.985 24.0063 486.724 23.0217 488.816 22.6523C490.417 22.2831 492.017 22.2822 493.617 22.2822H506.913C509.006 22.2822 510.607 24.0066 510.607 26.3457C510.606 27.3304 510.483 28.4381 510.36 29.4229C510.114 30.5308 509.991 31.6391 509.745 32.7471C508.637 39.1487 507.652 45.5504 506.667 52.0752C504.697 63.5245 502.974 75.0975 500.635 86.5469C500.019 89.6246 498.295 91.3476 495.587 91.4707C487.462 91.9631 478.967 91.7178 470.842 91.7178C468.134 91.7178 466.287 89.5016 465.548 86.0547C463.701 76.2059 461.854 66.2336 460.377 56.2617L460.254 55.2764L456.808 53.3066L456.068 54.9072C455.945 55.1533 455.699 55.3995 455.576 55.7686C455.453 56.1378 455.084 56.6307 454.961 57.123C454.469 58.7235 454.222 60.3244 453.976 61.9248C453.729 63.402 453.607 64.8793 453.36 66.2334C452.376 72.2658 451.39 78.4217 450.282 84.4541C449.421 88.8859 447.943 91.7178 444.742 91.7178H419.751C417.289 91.7178 415.688 89.7477 415.072 86.5469C412.364 73.6203 410.272 60.4472 408.179 47.3975C407.686 44.4428 406.824 40.503 406.085 36.5635C405.469 32.7472 404.855 29.1771 404.855 26.5918C404.855 24.0065 406.332 22.2822 408.671 22.2822H425.537ZM542.061 61.9248C539.475 61.9248 536.644 62.1708 535.782 65.125C535.29 67.0947 535.29 68.9415 535.659 70.7881C536.644 75.5894 541.691 75.8359 545.631 75.8359C547.231 75.8359 548.832 75.7131 550.433 75.2207C553.756 74.3589 555.85 72.0193 556.096 68.4492C556.219 66.7259 556.219 65.0026 556.219 63.5254C556.219 62.4174 555.849 61.9249 554.618 61.9248H542.061ZM130.062 40.5029C128.215 39.8874 126.368 39.7646 124.275 39.8877C120.09 40.3801 116.888 42.8426 115.78 46.9053C115.042 49.6136 114.919 52.322 115.042 55.0303C114.919 57.9849 115.165 60.6938 115.903 63.5254C117.011 68.4496 120.952 71.1582 125.753 71.1582C131.293 71.1581 134.986 68.326 136.094 62.7861C136.832 59.3391 136.833 56.0153 136.71 52.6914C136.587 50.8448 136.34 48.998 135.848 47.1514C135.232 44.0736 133.262 41.6109 130.062 40.5029ZM39.1778 40.626C31.9142 40.626 27.9749 42.104 27.4825 50.5986C27.2363 53.9225 27.1132 57.3694 27.4825 60.8164C28.4674 67.7106 33.0223 68.9414 39.0547 68.9414C41.0245 68.9414 43.9795 68.8187 45.9493 68.0801C50.8734 65.9871 51.4893 60.0775 51.4893 55.3994C51.4893 45.6738 50.5039 40.626 39.1778 40.626ZM270.421 0.123047C274.73 0.12305 276.453 0.246086 280.885 0.246094C285.563 0.246094 287.533 3.20067 288.272 6.03223C289.872 12.3111 297.013 44.689 274.607 53.1836C273.499 53.5529 272.267 53.6758 271.036 53.6758C269.313 53.6758 267.589 53.5528 265.865 53.4297C264.265 53.4295 263.28 52.0757 263.28 50.5986C263.157 47.7671 263.157 44.812 263.157 41.9805C263.157 39.5183 264.388 38.5333 266.728 38.4102C268.451 38.4102 270.175 38.4101 271.898 38.5332C273.745 38.5331 274.606 37.7946 274.73 35.8252C274.853 34.471 274.729 32.9932 273.006 32.9932C268.082 33.3624 263.157 31.1466 263.157 24.9912C263.034 19.3282 263.034 13.4189 263.157 7.63281C263.157 4.30881 265.127 0.123047 270.421 0.123047ZM759.272 39.5186C754.47 39.5188 749.669 42.8426 749.423 49.1211H768.628C768.628 42.7193 763.95 39.5186 759.272 39.5186ZM1077.73 39.5186C1072.92 39.5186 1068.12 42.8425 1067.88 49.1211H1087.08C1087.08 42.7193 1082.4 39.5186 1077.73 39.5186ZM922.519 0.123047C925.227 0.123076 928.674 0.492479 928.92 3.93945V16.25C928.92 16.7424 928.92 17.3582 928.797 17.8506C928.428 20.3127 927.073 21.4208 924.488 21.4209H909.223C907.622 21.4209 906.268 21.0514 905.529 19.6973C905.037 19.0817 904.667 18.22 904.667 17.6045C904.667 13.0495 904.544 8.3714 904.667 3.81641C904.667 0.615514 908.976 0.123047 911.439 0.123047H922.519Z" fill="black"/>
</svg>
