<svg width="223" height="31" viewBox="0 0 223 31" fill="none" xmlns="http://www.w3.org/2000/svg">
<path d="M209.561 4.89891V10.1114C210.737 7.72069 213.088 7.13282 215.518 7.13282C218.771 7.13282 222.102 8.5829 222.612 12.1885C222.768 12.9331 222.768 13.6778 222.768 14.4224V28.688C222.768 28.9624 222.768 29.1583 222.729 29.3935C222.572 29.8638 222.141 30.0597 221.632 30.1381H216.89C216.694 30.1381 216.459 30.0989 216.263 30.0597C215.675 29.9814 215.4 29.5503 215.322 28.9624V17.3226C215.322 15.3238 214.538 14.2264 212.383 14.2264C210.305 14.2264 209.561 15.167 209.561 17.2442C209.522 21.0849 209.561 24.8865 209.522 28.688C209.522 28.9232 209.522 29.08 209.443 29.2759C209.326 29.8246 208.855 30.0989 208.189 30.1381H203.447C202.663 30.1381 202.036 29.8638 202.036 28.9624V1.48927C202.036 0.666251 202.115 0.0783816 203.133 0H208.346C209.091 0.0391908 209.522 0.431104 209.522 1.21493C209.561 2.46905 209.561 3.68398 209.561 4.89891Z" fill="#0E0C0C"></path>
<path d="M184.332 22.1829V14.5405H182.96C182.608 14.5014 182.255 14.5014 181.941 14.3838C181.353 14.227 180.922 13.7175 180.922 13.0905V8.81861C180.922 8.23074 181.51 7.5253 182.137 7.32934C182.49 7.25096 182.882 7.21177 183.235 7.17258C184.254 7.13339 185.429 6.46713 185.821 5.40897C185.978 5.05624 185.978 4.74272 186.017 4.38999C186.056 3.64536 186.527 3.13587 187.271 3.13587C189.113 3.13587 190.955 3.09668 192.797 3.09668C193.307 3.09668 193.777 3.56697 193.816 4.07646C193.856 4.78191 193.816 5.48735 193.816 6.23198V7.21177H197.735C198.48 7.21177 199.303 7.72125 199.46 8.62265C199.499 8.70104 199.499 8.77942 199.499 8.81861V12.8161C199.499 13.6391 198.95 14.2662 198.167 14.4622C197.892 14.5014 197.657 14.5014 197.383 14.5014C196.285 14.5405 195.149 14.5014 194.051 14.5014H193.816V14.6973C193.816 16.5393 193.777 18.4205 193.816 20.3017C193.816 21.2423 194.443 21.8693 195.306 21.9085C196.285 21.9477 197.187 21.9477 198.167 21.9477C198.911 21.9477 199.46 22.4964 199.46 23.2018C199.499 24.8087 199.499 26.4155 199.499 28.0616C199.421 29.9819 197.853 30.0995 196.403 30.0995H192.327C187.546 30.0995 184.332 27.1602 184.332 22.1829Z" fill="#0E0C0C"></path>
<path d="M166.221 16.304H172.335C172.335 14.266 170.846 13.247 169.357 13.247C167.828 13.247 166.3 14.3052 166.221 16.304ZM178.763 20.3407H166.182C166.182 21.7515 166.809 23.3976 168.377 23.5935C168.73 23.6719 169.082 23.7111 169.435 23.7111C170.611 23.7111 171.787 23.28 172.178 22.0651C172.335 21.8299 172.492 21.6732 172.766 21.6732H178.88C180.801 21.7907 178.527 26.141 177.861 26.8856C175.666 29.7858 171.708 30.2561 168.338 30.0601C161.283 30.0601 158.422 24.5341 158.618 18.0284C158.853 10.8956 162.851 6.54531 170.532 7.01561C178.018 7.13318 180.605 13.0119 179.664 19.6744C179.546 20.1447 179.194 20.3407 178.763 20.3407Z" fill="#0E0C0C"></path>
<path d="M143.231 16.304H149.345C149.345 14.266 147.855 13.247 146.366 13.247C144.838 13.247 143.309 14.3052 143.231 16.304ZM155.772 20.3407H143.191C143.191 21.7515 143.819 23.3976 145.386 23.5935C145.739 23.6719 146.092 23.7111 146.444 23.7111C147.62 23.7111 148.796 23.28 149.188 22.0651C149.345 21.8299 149.501 21.6732 149.776 21.6732H155.889C157.81 21.7907 155.537 26.141 154.87 26.8856C152.676 29.7858 148.717 30.2561 145.347 30.0601C138.293 30.0601 135.432 24.5341 135.628 18.0284C135.863 10.8956 139.86 6.54531 147.542 7.01561C155.027 7.13318 157.614 13.0119 156.673 19.6744C156.556 20.1447 156.203 20.3407 155.772 20.3407Z" fill="#0E0C0C"></path>
<path d="M119.11 22.1829V14.5405H117.738C117.385 14.5014 117.033 14.5014 116.719 14.3838C116.131 14.227 115.7 13.7175 115.7 13.0905V8.81861C115.7 8.23074 116.288 7.5253 116.915 7.32934C117.268 7.25096 117.66 7.21177 118.012 7.17258C119.031 7.13339 120.207 6.46713 120.599 5.40897C120.756 5.05624 120.756 4.74272 120.795 4.38999C120.834 3.64536 121.305 3.13587 122.049 3.13587C123.891 3.13587 125.733 3.09668 127.575 3.09668C128.085 3.09668 128.555 3.56697 128.594 4.07646C128.633 4.78191 128.594 5.48735 128.594 6.23198V7.21177H132.513C133.258 7.21177 134.081 7.72125 134.238 8.62265C134.277 8.70104 134.277 8.77942 134.277 8.81861V12.8161C134.277 13.6391 133.728 14.2662 132.944 14.4622C132.67 14.5014 132.435 14.5014 132.161 14.5014C131.063 14.5405 129.927 14.5014 128.829 14.5014H128.594V14.6973C128.594 16.5393 128.555 18.4205 128.594 20.3017C128.594 21.2423 129.221 21.8693 130.083 21.9085C131.063 21.9477 131.965 21.9477 132.944 21.9477C133.689 21.9477 134.238 22.4964 134.238 23.2018C134.277 24.8087 134.277 26.4155 134.277 28.0616C134.198 29.9819 132.631 30.0995 131.181 30.0995H127.105C122.324 30.0995 119.11 27.1602 119.11 22.1829Z" fill="#0E0C0C"></path>
<path d="M88.9189 23.5934V9.05345C88.9189 8.26963 88.9189 7.09389 89.9771 7.09389C91.5056 7.0547 92.9948 7.0547 94.5233 7.0547C95.0328 7.0547 95.5031 7.0547 95.9734 7.09389C96.4437 7.09389 96.6396 7.28984 96.718 7.76014C96.7572 7.87771 96.7572 8.07367 96.7964 8.23043C96.8748 8.34801 96.9532 8.50477 97.0707 8.54397C97.1491 8.54397 97.3059 8.50477 97.3843 8.42639C98.5992 7.36822 100.049 6.74116 101.656 6.50601C102.283 6.38844 102.871 6.31006 103.459 6.31006C110.121 6.31006 114.119 11.0522 114.119 17.5188V28.3356C114.119 29.3546 113.492 30.06 112.512 30.06C110.357 30.0992 108.201 30.0992 106.124 30.0992C105.889 30.0992 105.693 30.06 105.536 29.9816C104.831 29.7465 104.439 29.2762 104.36 28.5315V17.9499C104.36 16.0295 103.185 14.4619 101.107 14.4619C100.167 14.4619 99.3438 14.7754 98.6776 15.52C97.9721 16.2255 97.9329 17.2052 97.9329 18.1458V28.1788C97.9329 29.1194 97.5802 29.9816 96.4829 30.06C95.7774 30.0992 95.0328 30.0992 94.3273 30.0992H90.9569C90.6434 30.0992 90.369 30.06 90.0163 30.0208C89.4284 29.864 88.9581 29.3546 88.9581 28.6883C88.9189 27.0031 88.9189 25.2787 88.9189 23.5934Z" fill="#0E0C0C"></path>
<path d="M73.4919 16.304H79.6057C79.6057 14.266 78.1165 13.247 76.6272 13.247C75.0987 13.247 73.5703 14.3052 73.4919 16.304ZM86.0331 20.3407H73.4527C73.4527 21.7515 74.0798 23.3976 75.6474 23.5935C76.0001 23.6719 76.3529 23.7111 76.7056 23.7111C77.8813 23.7111 79.0571 23.28 79.449 22.0651C79.6057 21.8299 79.7625 21.6732 80.0368 21.6732H86.1507C88.0711 21.7907 85.798 26.141 85.1317 26.8856C82.937 29.7858 78.9787 30.2561 75.6082 30.0601C68.5538 30.0601 65.6928 24.5341 65.8888 18.0284C66.1239 10.8956 70.1214 6.54531 77.8029 7.01561C85.2885 7.13318 87.8751 13.0119 86.9345 19.6744C86.817 20.1447 86.4642 20.3407 86.0331 20.3407Z" fill="#0E0C0C"></path>
<path d="M49.4817 28.7274C48.933 26.5326 44.6611 9.17089 44.6611 8.50464C44.6611 7.83838 45.2098 7.36809 45.9153 7.36809C47.7573 7.36809 49.6384 7.3289 51.4804 7.44647C52.2251 7.48566 52.5778 7.79919 52.7345 8.70059L54.7725 21.3986L55.0076 21.4378C55.0468 21.477 55.1252 21.477 55.1644 21.477C55.5171 21.477 55.6347 21.1242 55.6739 20.9675C55.8699 20.0269 55.9874 19.0863 56.1442 18.1457C56.6145 14.932 57.0848 11.7183 57.6727 8.54383C57.8686 7.72081 58.2213 7.40728 58.8876 7.40728L64.5703 7.36809C65.1974 7.36809 65.7461 7.95596 65.7461 8.6614C65.7461 8.85736 65.4325 10.1507 65.0406 11.6791C64.6879 13.1292 64.296 14.6185 64.1784 15.0888C63.3946 18.2241 62.65 21.3202 61.9053 24.4555C61.5526 25.9056 61.1999 27.434 60.808 28.8841C60.612 29.7071 60.2201 30.0599 59.5538 30.0599H50.8926C50.1087 30.0599 49.756 29.7071 49.4817 28.7274Z" fill="#0E0C0C"></path>
<path d="M30.2277 16.304H36.3416C36.3416 14.266 34.8523 13.247 33.363 13.247C31.8346 13.247 30.3061 14.3052 30.2277 16.304ZM42.769 20.3407H30.1885C30.1885 21.7515 30.8156 23.3976 32.3833 23.5935C32.736 23.6719 33.0887 23.7111 33.4414 23.7111C34.6172 23.7111 35.7929 23.28 36.1848 22.0651C36.3416 21.8299 36.4983 21.6732 36.7727 21.6732H42.8865C44.8069 21.7907 42.5338 26.141 41.8676 26.8856C39.6728 29.7858 35.7145 30.2561 32.3441 30.0601C25.2896 30.0601 22.4287 24.5341 22.6246 18.0284C22.8598 10.8956 26.8573 6.54531 34.5388 7.01561C42.0243 7.13318 44.6109 13.0119 43.6704 19.6744C43.5528 20.1447 43.2001 20.3407 42.769 20.3407Z" fill="#0E0C0C"></path>
<path d="M4.09377 21.516H6.6412C8.79673 21.7511 6.28848 24.2202 10.5211 24.2202C11.3834 24.2202 12.6767 24.2202 13.1862 23.4755C13.6956 22.8485 13.1862 21.8687 12.5983 21.6727C8.44401 20.4578 1.85986 21.0065 0.684123 15.6373C-0.805147 8.73961 5.23032 6.70166 10.9131 6.70166C11.305 6.70166 11.7361 6.70166 12.1672 6.74085C16.2823 6.89762 20.9068 8.50446 20.4757 13.4426C20.3974 14.0696 20.0054 14.3832 19.3784 14.3832C17.6932 14.4224 15.9687 14.3832 14.2835 14.4224C12.7551 14.344 13.5389 12.502 11.8928 12.306C11.5009 12.2276 11.109 12.1884 10.7171 12.1884C10.1292 12.1884 9.58055 12.2668 9.03187 12.4628C8.13047 12.6587 8.13047 13.9912 8.99268 14.3048C13.2645 15.5589 19.9271 15.0494 21.1028 20.6146C22.161 25.827 18.7905 29.8245 13.6956 30.3732C12.5591 30.4908 11.3442 30.6084 10.1292 30.6084C7.38584 30.6084 4.60326 30.0989 2.44773 28.3745C0.723315 27.042 -0.334851 24.8864 0.0962534 22.7309C0.409784 21.5552 3.54509 21.5552 4.09377 21.516Z" fill="#0E0C0C"></path>
</svg>